<svg width="94" height="63" viewBox="0 0 94 63" fill="none" xmlns="http://www.w3.org/2000/svg">
<path d="M39.2719 31.249C39.2731 31.1683 39.3012 31.0904 39.3517 31.0275C39.4023 30.9647 39.4724 30.9205 39.5509 30.902C39.5509 30.902 39.6009 30.902 39.6009 30.789C39.6009 30.702 39.5609 30.682 39.5609 30.682H38.9489C38.7639 30.682 38.5659 31.019 38.5659 31.276C38.5617 31.3401 38.5726 31.4042 38.5978 31.4633C38.623 31.5224 38.6617 31.5747 38.7109 31.616L38.1389 32.904L38.1829 32.964H38.8589L39.4309 31.664C39.4398 31.6442 39.4443 31.6227 39.4439 31.601C39.4439 31.5884 39.4412 31.5759 39.436 31.5643C39.4309 31.5528 39.4233 31.5424 39.4139 31.534C39.3697 31.5008 39.3339 31.4577 39.3093 31.4083C39.2846 31.3588 39.2718 31.3043 39.2719 31.249ZM45.2849 31.249C45.2856 31.1677 45.3138 31.0891 45.3651 31.0261C45.4163 30.963 45.4875 30.9193 45.5669 30.902C45.5669 30.902 45.6069 30.902 45.6069 30.789C45.6069 30.702 45.5699 30.682 45.5699 30.682H44.9549C44.8069 30.222 44.6729 29.751 44.5409 29.282C44.3859 28.715 44.2689 28.215 44.1849 27.741C43.6499 26.941 42.9849 26.38 42.9679 25.306C43.0291 24.5398 43.3833 23.8267 43.9569 23.315C44.2129 23.015 44.1719 22.995 44.2869 22.551C44.2869 22.551 44.4869 21.834 44.6059 21.351C45.0969 19.433 45.9239 18.536 46.4959 16.641C46.9724 15.3087 47.2775 13.9213 47.4039 12.512C47.4728 11.7023 47.4638 10.8879 47.3769 10.08L47.3429 9.98C46.9329 9.963 46.8989 10.38 46.8789 10.69C46.7409 12.975 45.8789 13.769 44.4539 15.27C43.8951 15.7153 43.2802 16.0851 42.6249 16.37C40.4967 17.2827 38.7195 18.8573 37.5569 20.86C37.3739 21.2862 37.2397 21.7317 37.1569 22.188C37.0939 22.514 37.0511 22.8437 37.0289 23.175C36.8069 23.652 37.7859 24.202 37.9129 25.275C38.0191 25.9035 37.9076 26.5494 37.5969 27.106C38.2773 28.2753 39.1029 29.3538 40.0539 30.316C40.2439 30.4924 40.4443 30.6574 40.6539 30.81C40.5487 30.945 40.4876 31.1091 40.4789 31.28C40.4762 31.3439 40.4878 31.4076 40.5129 31.4664C40.538 31.5252 40.5759 31.5777 40.6239 31.62L40.0559 32.908L40.0929 32.968H40.7719L41.3469 31.668C41.3558 31.6482 41.3603 31.6267 41.3599 31.605C41.3588 31.5797 41.348 31.5557 41.3299 31.538C41.2844 31.5061 41.2474 31.4635 41.2222 31.414C41.1969 31.3645 41.1841 31.3096 41.1849 31.254C41.1857 31.1812 41.2081 31.1102 41.2492 31.05C41.2903 30.9899 41.3483 30.9432 41.4159 30.916C41.4687 30.9461 41.5125 30.9898 41.5428 31.0426C41.573 31.0953 41.5886 31.1552 41.5879 31.216C41.5881 31.2601 41.5813 31.304 41.5679 31.346H42.5329C42.5352 31.399 42.5495 31.4508 42.5746 31.4976C42.5997 31.5443 42.635 31.5848 42.6779 31.616L42.5569 31.88L41.9789 32.951L42.1469 32.964H42.8259L43.3909 31.664C43.4017 31.6445 43.4085 31.6231 43.4109 31.601C43.411 31.5879 43.4079 31.575 43.402 31.5634C43.3961 31.5517 43.3875 31.5417 43.3769 31.534C43.3247 31.4946 43.2843 31.4416 43.2602 31.3807C43.2361 31.3198 43.2293 31.2535 43.2405 31.189C43.2516 31.1246 43.2803 31.0644 43.3235 31.0152C43.3666 30.9659 43.4224 30.9295 43.4849 30.91C43.5411 30.9393 43.5883 30.9834 43.6214 31.0375C43.6545 31.0915 43.6723 31.1536 43.6729 31.217C43.6711 31.2615 43.6619 31.3054 43.6459 31.347H44.5809C44.584 31.3994 44.5982 31.4506 44.6225 31.4971C44.6468 31.5436 44.6807 31.5845 44.7219 31.617L44.6039 31.877L44.0219 32.951L44.1829 32.964H44.8719L45.4399 31.664C45.4491 31.6441 45.4549 31.6228 45.4569 31.601C45.4575 31.5886 45.4553 31.5761 45.4507 31.5646C45.446 31.553 45.4389 31.5426 45.4299 31.534C45.3844 31.5021 45.3474 31.4595 45.3222 31.41C45.2969 31.3605 45.2841 31.3056 45.2849 31.25V31.249ZM33.8109 31.25C33.811 31.168 33.8396 31.0885 33.8917 31.0253C33.9439 30.962 34.0164 30.9188 34.0969 30.903C34.0969 30.903 34.1369 30.903 34.1369 30.79C34.1369 30.703 34.0999 30.683 34.0999 30.683H33.4849C33.3029 30.683 33.1019 31.02 33.1019 31.277C33.0982 31.3413 33.1097 31.4056 33.1354 31.4646C33.1611 31.5237 33.2003 31.5759 33.2499 31.617L32.6719 32.904L32.7159 32.964H33.3949L33.9599 31.664C33.9691 31.6441 33.9749 31.6228 33.9769 31.601C33.9769 31.5884 33.9742 31.5759 33.9691 31.5643C33.9639 31.5528 33.9563 31.5424 33.9469 31.534C33.9034 31.5006 33.8683 31.4576 33.8444 31.4083C33.8204 31.359 33.8083 31.3048 33.8089 31.25H33.8109ZM47.3299 31.25C47.3299 31.169 47.3575 31.0904 47.4082 31.0273C47.459 30.9642 47.5298 30.9203 47.6089 30.903C47.6089 30.903 47.6559 30.903 47.6559 30.79C47.6559 30.703 47.6159 30.683 47.6159 30.683H47.0039C46.8159 30.683 46.6209 31.02 46.6209 31.277C46.6168 31.3407 46.6273 31.4045 46.6518 31.4634C46.6762 31.5224 46.7139 31.5749 46.7619 31.617L46.1939 32.905L46.2379 32.965H46.9169L47.4819 31.665C47.4911 31.6451 47.4969 31.6238 47.4989 31.602C47.4997 31.5888 47.497 31.5756 47.491 31.5639C47.4851 31.5521 47.476 31.5421 47.4649 31.535C47.4226 31.5009 47.3885 31.4576 47.3653 31.4084C47.3421 31.3592 47.3303 31.3054 47.3309 31.251L47.3299 31.25ZM49.3719 31.251C49.3733 31.1693 49.4023 31.0906 49.4543 31.0275C49.5062 30.9645 49.578 30.921 49.6579 30.904C49.6579 30.904 49.7019 30.904 49.7019 30.791C49.7019 30.704 49.6649 30.684 49.6649 30.684H49.0519C48.8669 30.684 48.6649 31.021 48.6649 31.278C48.6623 31.3415 48.6736 31.4048 48.698 31.4635C48.7223 31.5222 48.7591 31.575 48.8059 31.618L48.2409 32.906L48.2809 32.966H48.9569L49.5289 31.666C49.5381 31.6461 49.5439 31.6248 49.5459 31.603C49.5459 31.5904 49.5432 31.5778 49.5381 31.5663C49.5329 31.5548 49.5253 31.5444 49.5159 31.536C49.4715 31.503 49.4353 31.4602 49.4101 31.411C49.385 31.3617 49.3716 31.3073 49.3709 31.252L49.3719 31.251ZM51.4189 31.252C51.4194 31.1712 51.4472 31.0929 51.4979 31.0299C51.5486 30.9668 51.6191 30.9228 51.6979 30.905C51.6979 30.905 51.7449 30.905 51.7449 30.792C51.7449 30.705 51.7049 30.685 51.7049 30.685H51.0959C50.9109 30.685 50.7159 31.022 50.7159 31.279C50.712 31.3424 50.7223 31.4059 50.7462 31.4647C50.7701 31.5236 50.8069 31.5763 50.8539 31.619L50.2819 32.907L50.3219 32.967H51.0049L51.5729 31.667C51.5837 31.6477 51.5896 31.6261 51.5899 31.604C51.5879 31.5795 51.5785 31.5561 51.5629 31.537C51.518 31.5045 51.4814 31.4618 51.4562 31.4125C51.431 31.3631 51.4179 31.3084 51.4179 31.253L51.4189 31.252ZM53.4659 31.253C53.4666 31.1717 53.4948 31.0931 53.5461 31.0301C53.5973 30.967 53.6685 30.9233 53.7479 30.906C53.7479 30.906 53.7849 30.906 53.7849 30.793C53.7849 30.706 53.7479 30.686 53.7479 30.686H53.1479C52.9559 30.686 52.7549 31.023 52.7549 31.28C52.752 31.3442 52.7638 31.4082 52.7895 31.4672C52.8151 31.5261 52.8539 31.5784 52.9029 31.62L52.3309 32.908L52.3749 32.968H53.0539L53.6259 31.668C53.6332 31.6477 53.6375 31.6265 53.6389 31.605C53.6383 31.5921 53.6349 31.5794 53.6291 31.5679C53.6232 31.5563 53.615 31.5462 53.6049 31.538C53.5614 31.5046 53.5263 31.4616 53.5024 31.4123C53.4784 31.363 53.4663 31.3088 53.4669 31.254L53.4659 31.253ZM55.5119 31.254C55.5133 31.1723 55.5423 31.0936 55.5943 31.0305C55.6462 30.9675 55.718 30.924 55.7979 30.907C55.7979 30.907 55.8419 30.907 55.8419 30.794C55.8419 30.707 55.8019 30.687 55.8019 30.687H55.1869C55.0089 30.687 54.8039 31.024 54.8039 31.281C54.8012 31.3449 54.8128 31.4086 54.8379 31.4674C54.863 31.5262 54.9009 31.5787 54.9489 31.621L54.3839 32.909L54.4209 32.969H55.0969L55.6689 31.669C55.6797 31.6495 55.6865 31.6281 55.6889 31.606C55.689 31.5929 55.6859 31.58 55.68 31.5684C55.6741 31.5567 55.6655 31.5467 55.6549 31.539C55.6111 31.5058 55.5755 31.4628 55.551 31.4136C55.5266 31.3643 55.5139 31.31 55.5139 31.255L55.5119 31.254ZM20.5839 32.897C20.4118 32.5751 20.2592 32.2432 20.1269 31.903C19.786 31.0647 19.6645 30.1533 19.7739 29.255C19.9589 27.914 20.7929 27.397 21.3949 26.186C21.9602 25.235 22.4292 24.2301 22.7949 23.186C23.0861 22.2848 23.2503 21.3475 23.2829 20.401C23.1171 20.4196 22.965 20.5021 22.8589 20.631C22.6239 20.864 22.2399 22.469 21.6889 23.503C21.3415 24.2045 20.8416 24.8195 20.2259 25.303C19.0259 26.303 17.5559 26.594 17.0379 27.464C16.5814 28.1221 16.3949 28.9304 16.5169 29.722C16.6155 30.2426 16.8227 30.7366 17.1251 31.1717C17.4275 31.6068 17.8183 31.9732 18.2719 32.247C18.614 32.506 18.9852 32.7241 19.3779 32.897H20.5839ZM23.8959 18.797C23.8959 19.097 23.5329 19.244 23.2369 19.244C22.9409 19.244 22.5709 19.097 22.5709 18.797C22.5709 18.497 22.9339 18.347 23.2369 18.347C23.5399 18.347 23.8959 18.497 23.8959 18.797ZM22.7429 17.846C22.7529 17.656 22.8939 16.729 23.2429 16.729C23.5919 16.729 23.7169 17.616 23.7269 17.82C23.7287 17.8845 23.7177 17.9487 23.6947 18.0089C23.6717 18.0692 23.637 18.1243 23.5926 18.1711C23.5483 18.218 23.4952 18.2556 23.4363 18.282C23.3774 18.3083 23.3139 18.3227 23.2494 18.3245C23.1849 18.3263 23.1207 18.3153 23.0605 18.2923C23.0002 18.2693 22.9451 18.2346 22.8983 18.1902C22.8514 18.1459 22.8138 18.0928 22.7874 18.0339C22.7611 17.975 22.7467 17.9115 22.7449 17.847L22.7429 17.846ZM23.4979 13.638C23.4479 13.508 23.3979 13.428 23.3629 13.311L23.2389 12.934C23.1498 13.216 23.0409 13.4914 22.9129 13.758C22.878 13.8066 22.8551 13.8628 22.8462 13.922C22.8373 13.9811 22.8426 14.0416 22.8617 14.0983C22.8808 14.155 22.9131 14.2063 22.956 14.2481C22.9989 14.2898 23.0511 14.3208 23.1082 14.3384C23.1654 14.356 23.226 14.3597 23.2849 14.3492C23.3438 14.3388 23.3994 14.3144 23.4471 14.2783C23.4947 14.2421 23.5331 14.195 23.5589 14.1411C23.5848 14.0872 23.5975 14.0278 23.5959 13.968C23.6159 13.811 23.5419 13.758 23.4959 13.638H23.4979ZM24.0239 16.08C23.9662 16.2449 23.8617 16.3895 23.7232 16.496C23.5847 16.6026 23.4181 16.6665 23.2439 16.68C23.0653 16.6763 22.8923 16.6163 22.7498 16.5085C22.6072 16.4008 22.5023 16.2508 22.4499 16.08C22.4099 15.98 22.2919 15.957 22.1369 15.943V15.743H22.4599C22.4968 15.5661 22.595 15.4079 22.7371 15.2963C22.8793 15.1847 23.0563 15.1268 23.2369 15.133C23.4164 15.1297 23.5915 15.1887 23.7324 15.2999C23.8733 15.4111 23.9714 15.5677 24.0099 15.743H24.3289V15.943C24.1739 15.956 24.0599 15.976 24.0229 16.08H24.0239ZM23.2359 14.346C23.309 14.3476 23.3801 14.3707 23.4401 14.4124C23.5002 14.4541 23.5467 14.5127 23.5736 14.5806C23.6006 14.6486 23.607 14.7231 23.5919 14.7946C23.5768 14.8662 23.541 14.9317 23.4888 14.983C23.4367 15.0344 23.3706 15.0692 23.2988 15.0831C23.227 15.097 23.1527 15.0895 23.0851 15.0614C23.0176 15.0334 22.9598 14.986 22.9191 14.9253C22.8783 14.8645 22.8563 14.7931 22.8559 14.72C22.8575 14.6203 22.8982 14.5251 22.9693 14.4552C23.0404 14.3852 23.1362 14.346 23.2359 14.346ZM23.5019 20.016C23.3469 20.029 23.2229 20.036 23.2229 20.036C23.2229 20.036 23.1019 20.029 22.9509 20.016C22.7579 19.9976 22.5667 19.9642 22.3789 19.916L22.3219 19.596C22.575 19.3736 22.9013 19.2524 23.2382 19.2556C23.5751 19.2587 23.899 19.386 24.1479 19.613L24.0809 19.913C23.8916 19.9633 23.6981 19.9968 23.5029 20.013L23.5019 20.016ZM72.1349 18.799C72.1349 19.099 71.7649 19.246 71.4689 19.246C71.1729 19.246 70.8099 19.099 70.8099 18.799C70.8099 18.499 71.1729 18.349 71.4689 18.349C71.7649 18.349 72.1349 18.499 72.1349 18.799ZM70.9779 17.848C70.9879 17.658 71.1289 16.731 71.4779 16.731C71.8269 16.731 71.9589 17.618 71.9619 17.822C71.9655 17.9522 71.9172 18.0785 71.8276 18.1731C71.7381 18.2678 71.6146 18.3229 71.4844 18.3265C71.3542 18.3301 71.2279 18.2818 71.1333 18.1922C71.0387 18.1027 70.9835 17.9792 70.9799 17.849L70.9779 17.848ZM71.7299 13.64C71.6859 13.51 71.6359 13.43 71.5949 13.313L71.4709 12.936C71.3871 13.2189 71.2804 13.4945 71.1519 13.76C71.117 13.8086 71.0941 13.8648 71.0852 13.924C71.0763 13.9831 71.0816 14.0436 71.1007 14.1003C71.1198 14.157 71.1521 14.2083 71.195 14.2501C71.2379 14.2918 71.2901 14.3228 71.3472 14.3404C71.4044 14.358 71.465 14.3617 71.5239 14.3512C71.5828 14.3408 71.6384 14.3164 71.6861 14.2803C71.7337 14.2441 71.7721 14.1971 71.7979 14.1431C71.8238 14.0892 71.8365 14.0298 71.8349 13.97C71.8549 13.813 71.7779 13.76 71.7349 13.64H71.7299ZM72.2629 16.082C72.2078 16.2466 72.1053 16.3914 71.9684 16.4981C71.8314 16.6048 71.666 16.6688 71.4929 16.682C71.3135 16.6786 71.1396 16.6188 70.996 16.5112C70.8525 16.4035 70.7464 16.2533 70.6929 16.082C70.6559 15.982 70.5349 15.959 70.3839 15.945V15.745H70.7029C70.748 15.5742 70.8483 15.4232 70.9882 15.3154C71.1281 15.2076 71.2998 15.1492 71.4764 15.1492C71.653 15.1492 71.8247 15.2076 71.9646 15.3154C72.1045 15.4232 72.2048 15.5742 72.2499 15.745H72.5689V15.945C72.4179 15.958 72.2999 15.978 72.2629 16.082ZM71.4759 14.348C71.5494 14.3482 71.6211 14.3701 71.6821 14.411C71.7431 14.452 71.7906 14.51 71.8187 14.5779C71.8467 14.6458 71.8541 14.7204 71.8398 14.7925C71.8255 14.8645 71.7902 14.9307 71.7383 14.9827C71.6864 15.0347 71.6203 15.0702 71.5483 15.0847C71.4763 15.0992 71.4016 15.092 71.3337 15.0642C71.2657 15.0363 71.2076 14.9889 71.1665 14.928C71.1254 14.8671 71.1033 14.7954 71.1029 14.722C71.1029 14.623 71.1422 14.528 71.2121 14.4579C71.282 14.3878 71.3769 14.3483 71.4759 14.348ZM71.7449 20.015C71.5899 20.028 71.4659 20.035 71.4659 20.035C71.4659 20.035 71.3479 20.028 71.1969 20.015C71.0039 19.9966 70.8127 19.9632 70.6249 19.915L70.5639 19.595C70.6877 19.4766 70.8347 19.3853 70.9957 19.3268C71.1566 19.2682 71.328 19.2438 71.4989 19.255C71.6639 19.2509 71.828 19.2804 71.9812 19.3418C72.1343 19.4032 72.2734 19.4951 72.3899 19.612L72.3229 19.912C72.1336 19.9623 71.9401 19.9958 71.7449 20.012V20.015ZM61.2059 8.012C61.2429 8.102 61.3059 8.145 61.2869 8.262C61.2839 8.33005 61.257 8.39485 61.2109 8.44498C61.1648 8.49511 61.1025 8.52735 61.0349 8.536C60.9888 8.52917 60.945 8.51147 60.907 8.48436C60.8691 8.45725 60.8382 8.42151 60.8168 8.3801C60.7954 8.33868 60.7842 8.29277 60.784 8.24616C60.7839 8.19954 60.7948 8.15356 60.8159 8.112C60.8993 7.93161 60.9724 7.74665 61.0349 7.558C61.0849 7.711 61.1489 7.858 61.2069 8.012H61.2059ZM58.7869 33.516L58.5579 33.232L58.7359 32.975V30.875H58.9359C58.9795 30.8746 59.0227 30.8828 59.0631 30.8993C59.1035 30.9157 59.1402 30.9399 59.1712 30.9706C59.2022 31.0013 59.2267 31.0378 59.2435 31.078C59.2603 31.1183 59.2689 31.1614 59.2689 31.205C59.2708 31.2819 59.2449 31.3569 59.1961 31.4164C59.1473 31.4759 59.0787 31.5158 59.0029 31.529L59.4699 32.55V28.995L59.7699 28.645V27.828C59.7699 27.221 60.2339 26.951 60.2109 26.737C60.1666 26.4752 60.0618 26.2273 59.9049 26.013V16.446C60.0237 16.1375 60.2233 15.8667 60.4829 15.662V15.348C60.3122 15.3247 60.1507 15.257 60.0143 15.1517C59.878 15.0464 59.7716 14.9072 59.7059 14.748C59.5479 14.418 59.2759 14.381 58.9359 14.434V14.047H59.7029V11.947H59.0029V11.606H59.7089L59.8089 11.376H59.9469C59.8965 11.2247 59.8758 11.0651 59.8859 10.906C59.9199 10.366 60.3429 10.152 60.6259 9.772C60.7586 9.6091 60.8696 9.42959 60.9559 9.238C60.8967 9.2269 60.8417 9.19949 60.7972 9.15886C60.7527 9.11823 60.7204 9.06598 60.7039 9.008L60.5959 8.995V8.805H60.7169C60.7409 8.7453 60.7824 8.69425 60.8359 8.65855C60.8895 8.62286 60.9526 8.60419 61.0169 8.605C61.0823 8.6044 61.1465 8.62304 61.2014 8.6586C61.2564 8.69415 61.2997 8.74506 61.3259 8.805H61.4399V8.995L61.3319 9.008C61.3154 9.06769 61.2818 9.12125 61.2352 9.16211C61.1887 9.20296 61.1312 9.22934 61.0699 9.238C61.1635 9.42692 61.2761 9.60584 61.4059 9.772C61.6949 10.152 62.1159 10.366 62.1459 10.906C62.1582 11.0647 62.1399 11.2242 62.0919 11.376H62.2299L62.3299 11.606H63.0399V11.95H62.3399V14.05H63.1069V14.437C62.7709 14.384 62.4949 14.42 62.3369 14.751C62.2713 14.9109 62.1647 15.0506 62.0277 15.156C61.8907 15.2614 61.7283 15.3287 61.5569 15.351V15.665C61.8175 15.8687 62.0174 16.1398 62.1349 16.449V26.016C61.9827 26.2322 61.8802 26.4795 61.8349 26.74C61.8079 26.953 62.2759 27.224 62.2759 27.831V28.648L62.5759 28.998V32.547L63.0429 31.526C62.9678 31.512 62.9002 31.4717 62.8522 31.4123C62.8042 31.3529 62.7789 31.2783 62.7809 31.202C62.7805 31.1586 62.7888 31.1155 62.8052 31.0752C62.8217 31.035 62.8459 30.9985 62.8767 30.9678C62.9074 30.937 62.9439 30.9127 62.9841 30.8963C63.0244 30.8799 63.0675 30.8716 63.1109 30.872H63.3109V32.972L63.4859 33.229L63.2609 33.513L58.7869 33.516ZM60.0449 12.065V14.016H60.4149V12.063C60.3942 12.0331 60.3666 12.0086 60.3343 11.9918C60.3021 11.9749 60.2663 11.9661 60.2299 11.9661C60.1935 11.9661 60.1577 11.9749 60.1255 11.9918C60.0933 12.0086 60.0656 12.0331 60.0449 12.063V12.065ZM61.0639 31.249C61.0653 31.1673 61.0943 31.0886 61.1463 31.0255C61.1982 30.9625 61.27 30.919 61.3499 30.902C61.3499 30.902 61.3899 30.902 61.3899 30.789C61.3899 30.702 61.3529 30.682 61.3529 30.682H60.7439C60.5559 30.682 60.3569 31.019 60.3569 31.276C60.3542 31.3399 60.3658 31.4036 60.3909 31.4624C60.416 31.5212 60.4539 31.5737 60.5019 31.616L59.9339 32.904L59.9709 32.964H60.6539L61.2219 31.664C61.2311 31.6441 61.2369 31.6228 61.2389 31.601C61.2389 31.5884 61.2362 31.5759 61.2311 31.5643C61.2259 31.5528 61.2183 31.5424 61.2089 31.534C61.164 31.5015 61.1274 31.4589 61.1022 31.4095C61.077 31.3601 61.0639 31.3054 61.0639 31.25V31.249ZM60.5489 16.426L60.2559 16.459V25.746H60.5559L60.5489 16.426ZM60.9159 12.043V14.016H61.2829V12.043C61.2633 12.0083 61.2338 11.9803 61.1982 11.9624C61.1626 11.9446 61.1224 11.9379 61.0829 11.943C61.0487 11.9439 61.0153 11.9536 60.9859 11.9711C60.9564 11.9886 60.932 12.0133 60.9149 12.043H60.9159ZM61.8149 12.043V14.016H61.9969V12.043C61.9969 12.043 61.9669 11.953 61.9159 11.943C61.8649 11.933 61.8159 12.043 61.8159 12.043H61.8149ZM33.8259 8.016C33.8559 8.106 33.9129 8.149 33.8999 8.266C33.897 8.3336 33.8705 8.39804 33.825 8.44811C33.7795 8.49818 33.7179 8.5307 33.6509 8.54C33.6048 8.53317 33.561 8.51547 33.5231 8.48836C33.4851 8.46125 33.4542 8.42552 33.4328 8.3841C33.4114 8.34268 33.4002 8.29677 33.4 8.25016C33.3999 8.20354 33.4108 8.15756 33.4319 8.116C33.5182 7.93686 33.5914 7.75171 33.6509 7.562C33.7079 7.715 33.7619 7.862 33.8259 8.016ZM31.4149 33.516L31.1829 33.232L31.3609 32.975V30.875H31.5609C31.6046 30.8746 31.648 30.8828 31.6886 30.8992C31.7291 30.9156 31.7661 30.9398 31.7973 30.9704C31.8285 31.0011 31.8533 31.0375 31.8704 31.0778C31.8875 31.118 31.8965 31.1613 31.8969 31.205C31.8974 31.282 31.8707 31.3568 31.8215 31.4161C31.7723 31.4753 31.7037 31.5153 31.6279 31.529L32.0989 32.55V28.995L32.3989 28.645V27.828C32.3989 27.221 32.8629 26.951 32.8429 26.737C32.7975 26.475 32.6917 26.2271 32.5339 26.013V16.446C32.6541 16.1372 32.8551 15.8664 33.1159 15.662V15.348C32.9447 15.3252 32.7825 15.2577 32.6456 15.1524C32.5087 15.0471 32.4019 14.9076 32.3359 14.748C32.1809 14.418 31.9019 14.381 31.5629 14.434V14.047H32.3329V11.947H31.6329V11.606H32.3459L32.4459 11.376H32.5719C32.5256 11.2239 32.5073 11.0646 32.5179 10.906C32.5479 10.366 32.9689 10.152 33.2579 9.772C33.3903 9.6083 33.5022 9.42896 33.5909 9.238C33.5302 9.22784 33.4735 9.20092 33.4272 9.16029C33.3809 9.11966 33.3469 9.06692 33.3289 9.008L33.2209 8.995V8.805H33.3489C33.3714 8.74428 33.4126 8.69224 33.4665 8.65632C33.5203 8.6204 33.5842 8.60244 33.6489 8.605C33.7135 8.60319 33.777 8.62146 33.8307 8.65728C33.8845 8.6931 33.9258 8.74472 33.9489 8.805H34.0719V8.995L33.9579 9.008C33.9424 9.06649 33.9104 9.11929 33.8657 9.16007C33.8211 9.20086 33.7656 9.22792 33.7059 9.238C33.7922 9.42958 33.9032 9.60909 34.0359 9.772C34.3219 10.152 34.7459 10.366 34.7759 10.906C34.7848 11.0646 34.7666 11.2236 34.7219 11.376H34.8629L34.9569 11.606H35.6669V11.95H34.9669V14.05H35.7339V14.437C35.3939 14.384 35.1189 14.42 34.9639 14.751C34.8969 14.9094 34.7902 15.0478 34.6541 15.1529C34.518 15.258 34.3571 15.3262 34.1869 15.351V15.665C34.4465 15.8697 34.6462 16.1405 34.7649 16.449V26.016C34.6097 26.2316 34.5042 26.4788 34.4559 26.74C34.4319 26.953 34.9029 27.224 34.9029 27.831V28.648L35.1889 28.998V32.547L35.6659 31.526C35.5908 31.512 35.5232 31.4717 35.4752 31.4123C35.4272 31.3529 35.4019 31.2783 35.4039 31.202C35.4038 31.1586 35.4122 31.1157 35.4288 31.0756C35.4453 31.0355 35.4696 30.999 35.5003 30.9684C35.5309 30.9377 35.5674 30.9134 35.6075 30.8969C35.6476 30.8803 35.6905 30.8719 35.7339 30.872H35.9339V32.972L36.1089 33.229L35.8869 33.513L31.4149 33.516ZM32.6719 12.063V14.016H33.0349V12.063C33.0164 12.0308 32.9893 12.0044 32.9566 11.9867C32.9239 11.9691 32.887 11.9608 32.8499 11.963C32.8142 11.9631 32.779 11.9723 32.7479 11.9898C32.7167 12.0073 32.6906 12.0325 32.6719 12.063ZM33.1719 16.426L32.8789 16.459V25.746H33.1719V16.426ZM33.5449 12.043V14.016H33.9049V12.043C33.8853 12.0083 33.8558 11.9803 33.8202 11.9624C33.7846 11.9446 33.7444 11.9379 33.7049 11.943C33.6711 11.9438 33.638 11.9535 33.6091 11.971C33.5802 11.9886 33.5563 12.0134 33.5399 12.043H33.5449ZM34.4339 12.043V14.016H34.6219V12.043C34.6219 12.043 34.5879 11.953 34.5349 11.943C34.4819 11.933 34.4349 12.043 34.4349 12.043H34.4339ZM17.0259 34.135H77.6489C77.7051 34.1281 77.7622 34.1332 77.8163 34.15C77.8704 34.1667 77.9204 34.1948 77.9628 34.2324C78.0052 34.2699 78.0392 34.316 78.0625 34.3677C78.0858 34.4193 78.0978 34.4753 78.0978 34.532C78.0978 34.5887 78.0858 34.6447 78.0625 34.6963C78.0392 34.748 78.0052 34.7941 77.9628 34.8316C77.9204 34.8692 77.8704 34.8973 77.8163 34.914C77.7622 34.9308 77.7051 34.9359 77.6489 34.929H17.0259C16.9697 34.9359 16.9126 34.9308 16.8585 34.914C16.8044 34.8973 16.7545 34.8692 16.712 34.8316C16.6696 34.7941 16.6356 34.748 16.6123 34.6963C16.589 34.6447 16.577 34.5887 16.577 34.532C16.577 34.4753 16.589 34.4193 16.6123 34.3677C16.6356 34.316 16.6696 34.2699 16.712 34.2324C16.7545 34.1948 16.8044 34.1667 16.8585 34.15C16.9126 34.1332 16.9697 34.1281 17.0259 34.135ZM72.2889 20.503C72.393 20.677 72.4657 20.8679 72.5039 21.067C72.7594 21.973 73.1266 22.8436 73.5969 23.659C74.9249 26.141 79.3269 25.093 79.4679 29.459C79.5285 30.1467 79.3999 30.8378 79.0958 31.4576C78.7917 32.0774 78.3239 32.6021 77.7429 32.975L77.9009 33.232L77.7089 33.516H65.2369L65.0019 33.199L65.1769 32.982C64.5953 32.6076 64.1266 32.0821 63.821 31.4616C63.5153 30.8412 63.3843 30.1492 63.4419 29.46C63.5829 25.094 67.9819 26.141 69.3029 23.66C69.7796 22.8469 70.1493 21.9757 70.4029 21.068C70.5409 20.524 70.8029 20.081 71.4719 20.094C71.6319 20.0828 71.792 20.115 71.9352 20.1872C72.0785 20.2593 72.1996 20.3688 72.2859 20.504L72.2889 20.503ZM68.8159 32.959C68.6402 32.6183 68.4875 32.2662 68.3589 31.905C68.0218 31.0657 67.9028 30.1547 68.0129 29.257C68.1909 27.916 69.0249 27.399 69.6299 26.188C70.1939 25.2364 70.6628 24.2315 71.0299 23.188C71.3243 22.2876 71.4886 21.3498 71.5179 20.403C71.3523 20.4223 71.2004 20.5047 71.0939 20.633C70.8549 20.866 70.4749 22.471 69.9239 23.505C69.5765 24.2065 69.0766 24.8215 68.4609 25.305C67.2609 26.305 65.7979 26.596 65.2729 27.466C64.8187 28.1251 64.6335 28.9328 64.7549 29.724C64.8541 30.2434 65.0617 30.7362 65.3641 31.17C65.6665 31.6039 66.0569 31.9691 66.5099 32.242C66.8458 32.5163 67.2099 32.7543 67.5959 32.952L68.8159 32.959ZM47.3369 33.516H36.8249L36.5359 33.226L36.8049 32.993V30.869H37.0719C37.1167 30.8701 37.1607 30.8803 37.2015 30.8989C37.2422 30.9174 37.2787 30.9441 37.3089 30.9771C37.3391 31.0102 37.3622 31.049 37.377 31.0913C37.3918 31.1335 37.3979 31.1783 37.3949 31.223C37.3846 31.295 37.3537 31.3626 37.306 31.4176C37.2583 31.4725 37.1958 31.5126 37.1259 31.533L37.7949 32.69V31.346H38.1209V31.293C36.8669 29.475 35.9019 27.893 35.9719 25.379C36.1369 20.489 38.3629 17.937 42.3849 15.899C42.9845 15.6403 43.5493 15.3074 44.0659 14.908C45.4079 13.508 46.2279 12.793 46.3559 10.659C46.3929 10.059 46.7329 9.459 47.3409 9.459C47.9489 9.459 48.2859 10.059 48.3229 10.659C48.4569 12.794 49.2749 13.504 50.6099 14.908C51.1286 15.3082 51.6957 15.6411 52.2979 15.899C56.3129 17.937 58.5459 20.489 58.7069 25.379C58.7839 27.897 57.8159 29.479 56.5579 31.293V31.346H56.8839V32.69L57.5569 31.533C57.4855 31.5155 57.4213 31.4763 57.3731 31.4208C57.3249 31.3653 57.2951 31.2962 57.2879 31.223C57.2839 31.1784 57.2892 31.1336 57.3033 31.0911C57.3175 31.0487 57.3402 31.0096 57.3702 30.9764C57.4001 30.9432 57.4366 30.9165 57.4773 30.898C57.5181 30.8795 57.5622 30.8696 57.6069 30.869H57.8719V32.997L58.1409 33.23L57.8409 33.52L47.3369 33.516ZM47.4479 2.292C47.4733 2.44245 47.5371 2.5838 47.6331 2.7024C47.7291 2.82099 47.854 2.91282 47.9959 2.969H48.2009L48.2209 3.092C48.1653 3.09656 48.1117 3.11473 48.0648 3.1449C48.0179 3.17507 47.9791 3.21632 47.9519 3.265C47.8139 3.559 47.7599 4.126 47.3469 4.126C46.9339 4.126 46.8859 3.559 46.7469 3.265C46.72 3.21666 46.6818 3.17561 46.6354 3.14546C46.589 3.1153 46.536 3.09695 46.4809 3.092L46.5009 2.969H46.7009C46.7926 2.93448 46.8777 2.88479 46.9529 2.822C47.0373 2.7599 47.1085 2.68156 47.1623 2.59158C47.216 2.5016 47.2513 2.40179 47.2659 2.298C47.2178 2.28217 47.1736 2.25609 47.1365 2.22157C47.0994 2.18704 47.0702 2.14489 47.0509 2.098C47.0379 2.058 46.9899 2.055 46.9329 2.048V1.975H47.0569C47.0732 1.91108 47.1106 1.85455 47.163 1.8146C47.2155 1.77465 47.28 1.75365 47.3459 1.755C47.4134 1.75257 47.4797 1.77296 47.5341 1.81289C47.5886 1.85281 47.6279 1.90993 47.6459 1.975H47.7719V2.048C47.7079 2.055 47.6719 2.058 47.6539 2.098C47.6362 2.14333 47.6092 2.18449 47.5748 2.21891C47.5404 2.25333 47.4992 2.28026 47.4539 2.298L47.4479 2.292ZM39.1289 23.124C39.2129 23.508 40.1879 24.251 40.1779 25.375C40.0495 26.1622 39.7007 26.8969 39.1719 27.494C38.6937 26.8428 38.3895 26.0805 38.2879 25.279C38.2609 24.155 39.0509 23.508 39.1289 23.124ZM47.0819 22.934C46.9509 23.334 45.6969 24.055 45.7199 25.219C45.7499 26.303 46.7359 27.05 47.0149 27.45C47.3009 27.05 48.2829 26.303 48.3099 25.219C48.3399 24.055 47.2039 23.334 47.0829 22.934H47.0819ZM50.0249 23.041C49.9039 23.441 48.7299 24.132 48.7399 25.279C48.7699 26.336 49.7189 27.107 49.9569 27.494C50.2159 27.107 51.2569 26.4 51.2789 25.343C51.3059 24.196 50.1319 23.443 50.0249 23.043V23.041ZM52.9979 23.08C52.8739 23.48 51.6289 24.261 51.6559 25.412C51.6799 26.496 52.6879 27.16 52.9239 27.567C53.527 26.9919 53.925 26.2349 54.0569 25.412C54.0839 24.261 53.1019 23.484 52.9979 23.08ZM44.2549 23.48C43.7232 23.9427 43.3907 24.593 43.3269 25.295C43.4041 26.0437 43.738 26.7426 44.2719 27.273C44.8494 26.7587 45.2299 26.0593 45.3479 25.295C45.3609 24.414 44.8299 23.957 44.3859 23.314C44.3452 23.3719 44.3014 23.4276 44.2549 23.481V23.48ZM57.6489 23.228C57.5779 23.598 56.8219 24.265 56.8389 25.353C56.9173 26.1 57.1858 26.8144 57.6189 27.428C58.0409 26.8101 58.3031 26.0971 58.3819 25.353C58.3072 24.5971 58.0561 23.8692 57.6489 23.228ZM55.5239 23.128C55.4399 23.512 54.4309 24.222 54.4409 25.346C54.4679 26.39 55.2949 27.11 55.4869 27.497C55.9977 26.856 56.3315 26.0923 56.4549 25.282C56.4819 24.158 55.6039 23.511 55.5239 23.127V23.128ZM41.6799 23.07C41.7979 23.477 42.7429 24.187 42.7189 25.341C42.5871 26.1773 42.2033 26.9535 41.6189 27.566C41.0419 26.9817 40.6711 26.2251 40.5629 25.411C40.5359 24.26 41.5719 23.476 41.6829 23.069L41.6799 23.07ZM47.3219 8.313C47.0329 8.296 46.8779 8.063 46.7909 7.799C46.7509 7.686 46.4209 7.742 46.2599 7.729V7.492H46.7269C46.7766 7.36808 46.863 7.26231 46.9745 7.18887C47.086 7.11542 47.2173 7.07782 47.3508 7.08108C47.4843 7.08434 47.6136 7.12832 47.7214 7.20713C47.8292 7.28593 47.9103 7.3958 47.9539 7.522L48.4539 7.529V7.729C48.2819 7.746 47.9429 7.672 47.9059 7.786C47.8149 8.046 47.6199 8.326 47.3179 8.31L47.3219 8.313ZM47.3419 9.287C47.2427 9.27688 47.1484 9.23894 47.0699 9.17754C46.9913 9.11615 46.9317 9.0338 46.8979 8.94C46.8779 8.883 46.8069 8.87 46.7199 8.86V8.75H46.9079C46.9305 8.64911 46.9868 8.55892 47.0675 8.49429C47.1482 8.42966 47.2485 8.39445 47.3519 8.39445C47.4553 8.39445 47.5556 8.42966 47.6363 8.49429C47.717 8.55892 47.7733 8.64911 47.7959 8.75H47.9839V8.86C47.8929 8.87 47.8259 8.883 47.8059 8.94C47.7698 9.03615 47.707 9.11995 47.6247 9.18145C47.5425 9.24295 47.4443 9.27958 47.3419 9.287ZM47.3489 0.705002C47.3929 0.832002 47.4399 0.918002 47.4939 1.059C47.5379 1.166 47.6079 1.222 47.5939 1.339C47.5994 1.37356 47.5973 1.4089 47.5878 1.44258C47.5784 1.47627 47.5617 1.50749 47.539 1.53411C47.5162 1.56072 47.488 1.58209 47.4563 1.59675C47.4245 1.6114 47.3899 1.61899 47.3549 1.61899C47.3199 1.61899 47.2853 1.6114 47.2536 1.59675C47.2218 1.58209 47.1936 1.56072 47.1708 1.53411C47.1481 1.50749 47.1315 1.47627 47.122 1.44258C47.1125 1.4089 47.1104 1.37356 47.1159 1.339C47.0989 1.222 47.1729 1.166 47.2159 1.059C47.2699 0.919002 47.3159 0.832002 47.3539 0.705002H47.3489ZM47.3269 6.929C46.8159 6.782 46.3649 6.395 46.3649 5.972C46.3989 5.285 46.8289 4.172 47.3269 4.248C47.7809 4.218 48.3189 5.312 48.3489 6.002C48.3489 6.422 47.8549 6.813 47.3269 6.929ZM24.0509 20.502C24.1554 20.6764 24.2301 20.867 24.2719 21.066C24.5239 21.9743 24.8937 22.8457 25.3719 23.658C26.6869 26.14 31.0919 25.092 31.2329 29.458C31.2941 30.145 31.1663 30.8356 30.8636 31.4553C30.5608 32.0749 30.0944 32.6001 29.5149 32.974L29.6659 33.231L29.4719 33.516H16.9989L16.7639 33.199L16.9459 32.982C16.3629 32.6087 15.8926 32.0835 15.5857 31.463C15.2788 30.8424 15.1468 30.1499 15.2039 29.46C15.3489 25.094 19.7469 26.141 21.0649 23.66C21.5473 22.8498 21.9174 21.9778 22.1649 21.068C22.3129 20.524 22.5649 20.081 23.2439 20.094C23.4032 20.0838 23.5624 20.1164 23.7048 20.1885C23.8473 20.2606 23.9678 20.3696 24.0539 20.504" fill="#282C36"/>
<path d="M3.96215 45.396C3.96215 46.17 4.08316 46.84 4.85616 46.84C5.80816 46.84 6.20816 45.983 6.20816 44.999C6.22921 44.6493 6.16419 44.2998 6.01879 43.9811C5.87339 43.6624 5.65205 43.3843 5.37416 43.171C5.04581 42.9734 4.66256 42.8868 4.28115 42.924C3.97515 42.924 3.96215 43.111 3.96215 43.474V45.396ZM3.96215 41.834C3.96215 42.408 3.96216 42.381 4.39616 42.381C4.60948 42.3971 4.82369 42.3648 5.02277 42.2865C5.22186 42.2082 5.40068 42.0859 5.54588 41.9288C5.69107 41.7716 5.79889 41.5838 5.86127 41.3791C5.92366 41.1745 5.939 40.9584 5.90615 40.747C5.92656 40.563 5.9092 40.3768 5.85511 40.1997C5.80103 40.0227 5.71137 39.8586 5.59163 39.7174C5.47189 39.5762 5.32459 39.4609 5.15874 39.3787C4.9929 39.2964 4.81201 39.2489 4.62716 39.239C4.4074 39.2264 4.19108 39.2979 4.02216 39.439C3.92216 39.562 3.96115 39.893 3.96115 40.086L3.96215 41.834ZM2.02515 40.573C2.02515 40.039 2.06916 39.639 1.54116 39.639C1.35316 39.639 1.02315 39.706 1.02315 39.382C1.02315 39.172 1.21515 39.132 1.35315 39.082C2.43887 38.8041 3.55936 38.6862 4.67915 38.732C5.33225 38.7229 5.98266 38.8174 6.60615 39.012C6.97451 39.1485 7.29267 39.3937 7.51842 39.7152C7.74417 40.0367 7.86684 40.4192 7.87015 40.812C7.87015 42.18 6.69615 42.54 5.72815 42.62C7.00915 42.687 8.16915 43.26 8.16915 44.945C8.18687 45.3174 8.11159 45.6884 7.9501 46.0245C7.78862 46.3605 7.546 46.6511 7.24416 46.87C6.6641 47.2257 5.98484 47.3849 5.30716 47.324C4.17416 47.324 3.07115 47.267 1.96115 47.267C1.72915 47.267 1.52016 47.324 1.28516 47.324C1.24615 47.3297 1.20635 47.3263 1.16886 47.3141C1.13138 47.3019 1.09723 47.2812 1.06906 47.2536C1.0409 47.226 1.01949 47.1923 1.00649 47.1551C0.993499 47.1178 0.989276 47.0781 0.994156 47.039C0.994156 46.829 1.17616 46.785 1.31316 46.762C2.08016 46.615 2.01915 46.335 2.01915 45.468L2.02515 40.573Z" fill="#282C36"/>
<path d="M11.2379 42.026C11.4379 42.026 11.9378 41.012 12.8918 41.012C13.1583 41.0159 13.4124 41.1245 13.5995 41.3142C13.7866 41.5039 13.8916 41.7596 13.8918 42.026C13.905 42.2987 13.8099 42.5656 13.6273 42.7685C13.4447 42.9715 13.1894 43.0942 12.9169 43.11C12.1669 43.11 12.0859 42.336 11.7299 42.336C11.1479 42.336 11.2388 43.724 11.2388 44.136V45.464C11.2114 45.8204 11.2282 46.1788 11.2889 46.531C11.3459 46.731 11.7059 46.718 11.9209 46.758C12.0519 46.781 12.2069 46.865 12.2069 47.032C12.2069 47.262 11.9948 47.289 11.8368 47.289C11.3458 47.289 10.8479 47.262 10.3609 47.262C9.87385 47.262 9.39285 47.289 8.89785 47.289C8.74685 47.289 8.54785 47.262 8.54785 47.032C8.54785 46.865 8.68885 46.782 8.82985 46.758C8.99485 46.728 9.35485 46.718 9.41485 46.531C9.48262 46.1796 9.5098 45.8216 9.49585 45.464V43.494C9.49585 42.934 9.53285 42.63 8.97785 42.547C8.81685 42.54 8.62785 42.547 8.62785 42.32C8.62785 42.093 9.00785 42.04 9.13585 42.003C9.71525 41.8447 10.2391 41.5282 10.6488 41.089C10.6938 41.0163 10.7567 40.9563 10.8314 40.9148C10.9062 40.8733 10.9904 40.8517 11.0759 40.852C11.2639 40.852 11.2369 41.202 11.2369 41.336L11.2379 42.026Z" fill="#282C36"/>
<path d="M14.7192 39.368C14.7189 39.2312 14.746 39.0957 14.7989 38.9695C14.8518 38.8433 14.9294 38.729 15.0272 38.6333C15.1249 38.5376 15.2409 38.4624 15.3681 38.4122C15.4954 38.362 15.6314 38.3378 15.7682 38.341C15.9034 38.3362 16.0382 38.3591 16.1642 38.4084C16.2903 38.4577 16.4048 38.5323 16.5009 38.6276C16.5969 38.7229 16.6724 38.8369 16.7227 38.9625C16.773 39.0881 16.797 39.2227 16.7932 39.358C16.8009 39.5002 16.7793 39.6425 16.7296 39.776C16.68 39.9095 16.6034 40.0313 16.5046 40.134C16.4058 40.2366 16.287 40.3178 16.1555 40.3725C16.024 40.4272 15.8826 40.4543 15.7402 40.452C15.6003 40.4534 15.4617 40.4259 15.3329 40.3711C15.2042 40.3163 15.0882 40.2354 14.9923 40.1336C14.8964 40.0318 14.8226 39.9112 14.7756 39.7794C14.7286 39.6476 14.7094 39.5076 14.7192 39.368ZM16.6492 45.468C16.6198 45.8241 16.6346 46.1825 16.6932 46.535C16.7502 46.735 17.1132 46.722 17.3292 46.762C17.4013 46.7669 17.4692 46.7975 17.5204 46.8484C17.5717 46.8993 17.6028 46.967 17.6082 47.039C17.6082 47.266 17.3962 47.292 17.2482 47.292C16.7482 47.292 16.2562 47.265 15.7682 47.265C15.2802 47.265 14.8002 47.292 14.3052 47.292C14.1542 47.292 13.9492 47.265 13.9492 47.039C13.9492 46.869 14.0972 46.785 14.2382 46.762C14.4032 46.735 14.7662 46.722 14.8232 46.535C14.8937 46.184 14.9219 45.8257 14.9072 45.468V43.494C14.9072 42.937 14.9442 42.63 14.3862 42.547C14.2252 42.537 14.0362 42.547 14.0362 42.324C14.0362 42.101 14.4132 42.04 14.5362 42.004C15.1167 41.8481 15.6412 41.5313 16.0492 41.09C16.0949 41.0172 16.1583 40.9573 16.2335 40.9159C16.3088 40.8744 16.3933 40.8528 16.4792 40.853C16.6642 40.853 16.6442 41.203 16.6442 41.34L16.6492 45.468Z" fill="#282C36"/>
<path d="M21.4398 43.4C21.4398 42.67 21.3398 41.455 20.4778 41.455C19.6778 41.455 19.5628 42.306 19.5628 43.043C19.5628 43.78 19.7038 44.954 20.5628 44.954C21.3628 44.954 21.4368 44.1 21.4368 43.4H21.4398ZM22.2838 48.627C22.2838 47.827 21.3458 47.927 20.8648 47.927C20.3409 47.9242 19.8236 47.8093 19.3478 47.59C19.2634 47.6086 19.1863 47.6513 19.1258 47.713C18.989 47.8769 18.9139 48.0835 18.9138 48.297C18.9138 49.431 19.9138 49.725 20.7228 49.725C21.2948 49.725 22.2828 49.471 22.2828 48.631L22.2838 48.627ZM18.1738 46.476C18.0898 46.386 17.8848 46.212 17.8848 46.069C17.8848 45.816 18.2848 45.709 18.4328 45.642L18.8968 45.425C18.9338 45.425 19.2428 45.302 19.2428 45.238C19.2428 45.211 19.1118 45.145 19.0878 45.145C18.7025 45.0063 18.3693 44.7523 18.1335 44.4175C17.8976 44.0828 17.7707 43.6835 17.7698 43.274C17.7735 42.941 17.854 42.6134 18.0051 42.3166C18.1561 42.0198 18.3737 41.7619 18.6408 41.563C19.1845 41.1826 19.8377 40.9904 20.5008 41.016C21.0129 41.003 21.5209 41.1106 21.9838 41.33C22.1699 41.4404 22.3825 41.4981 22.5988 41.497H23.2988C23.6488 41.46 23.7658 41.46 23.7658 41.911C23.7658 42.275 23.6818 42.195 23.3758 42.195H22.9658C22.9558 42.208 22.9088 42.208 22.9088 42.245C23.0999 42.5435 23.2016 42.8905 23.2018 43.245C23.1737 43.8402 22.9131 44.4005 22.476 44.8054C22.039 45.2103 21.4604 45.4274 20.8648 45.41L20.2498 45.423C20.1258 45.423 19.5978 45.423 19.5978 45.69C19.5978 45.827 19.7978 45.974 19.8978 46.014C20.1257 46.0759 20.3622 46.0995 20.5978 46.084H21.4918C21.9774 46.0519 22.4643 46.1224 22.9208 46.291C23.1923 46.4236 23.4198 46.6316 23.5761 46.8902C23.7323 47.1488 23.8107 47.447 23.8018 47.749C23.7809 48.1433 23.6597 48.5258 23.4497 48.8602C23.2397 49.1946 22.9479 49.4699 22.6018 49.66C21.9383 50.056 21.1739 50.2506 20.4018 50.22C19.5108 50.22 17.5708 49.993 17.5708 48.62C17.5708 47.553 18.8858 47.526 18.8858 47.269C18.8858 47.192 18.6858 47.029 18.6508 46.992L18.1738 46.476Z" fill="#282C36"/>
<path d="M30.6308 45.502C30.5999 45.8281 30.6284 46.1571 30.7148 46.473C30.8558 46.706 31.0878 46.72 31.3068 46.76C31.381 46.7652 31.4506 46.7977 31.5021 46.8513C31.5537 46.9049 31.5835 46.9757 31.5858 47.05C31.5858 47.28 31.3858 47.29 31.2328 47.29C30.6678 47.29 30.1328 47.263 29.5618 47.263C29.1448 47.263 28.6938 47.29 28.2618 47.29C28.1238 47.29 27.9798 47.247 27.9798 47.05C27.9775 46.9815 28.0001 46.9144 28.0432 46.8612C28.0864 46.8079 28.1473 46.772 28.2148 46.76C28.3898 46.736 28.5525 46.6564 28.6788 46.533C28.8047 46.2049 28.8473 45.8506 28.8028 45.502V43.578C28.8028 42.751 28.8028 41.907 27.8408 41.907C27.4839 41.9175 27.1436 42.06 26.8858 42.307C26.6738 42.534 26.6978 42.721 26.6978 43.027V45.499C26.6726 45.8075 26.6941 46.118 26.7618 46.42C26.7963 46.5002 26.848 46.572 26.9131 46.6302C26.9782 46.6884 27.0552 46.7317 27.1388 46.757C27.2968 46.807 27.5218 46.79 27.5218 47.047C27.5218 47.234 27.3808 47.287 27.2428 47.287C27.0038 47.287 26.7918 47.26 26.5598 47.26C25.7868 47.26 25.0328 47.287 24.2668 47.287C24.1158 47.287 23.9038 47.277 23.9038 47.047C23.9061 46.9727 23.9359 46.9019 23.9875 46.8483C24.039 46.7947 24.1086 46.7622 24.1828 46.757C24.3578 46.717 24.6068 46.704 24.7408 46.53C24.8744 46.2038 24.9172 45.8476 24.8648 45.499V39.945C24.8648 39.211 24.9048 39.078 24.2398 38.971C24.1488 38.958 24.0108 38.918 24.0108 38.771C24.0108 38.518 24.3468 38.491 24.5108 38.464C25.0471 38.3709 25.5694 38.2096 26.0648 37.984C26.2003 37.9089 26.3484 37.8591 26.5018 37.837C26.7608 37.837 26.7018 38.294 26.7018 38.477V41.682C26.7018 41.749 26.7118 41.815 26.7728 41.815C26.9408 41.815 27.6668 41.015 28.6898 41.015C28.98 41.0127 29.2674 41.0721 29.5329 41.1894C29.7985 41.3066 30.036 41.479 30.2298 41.695C30.5692 42.2167 30.7144 42.8411 30.6398 43.459L30.6308 45.502Z" fill="#282C36"/>
<path d="M34.007 44.555C34.007 45.045 33.957 46.355 34.579 46.355C34.969 46.355 35.228 45.968 35.406 45.968C35.487 45.968 35.547 46.045 35.547 46.151C35.547 46.328 35.315 46.595 35.217 46.701C35.0196 46.9099 34.7828 47.0776 34.5201 47.1944C34.2575 47.3111 33.9743 47.3745 33.687 47.381C33.4759 47.3783 33.2684 47.3262 33.0811 47.229C32.8937 47.1318 32.7317 46.992 32.608 46.821C32.3575 46.368 32.2387 45.854 32.265 45.337V42.55C32.2654 42.3628 32.254 42.1758 32.231 41.99C32.207 41.857 32.066 41.813 31.945 41.813C31.794 41.813 31.417 41.88 31.417 41.666C31.417 41.452 31.669 41.366 31.794 41.306C32.4653 41.0133 33.0177 40.5019 33.361 39.855C33.445 39.675 33.561 39.408 33.761 39.408C34.01 39.408 33.961 39.715 33.961 39.908V40.829C33.961 41.206 34.035 41.193 34.341 41.193H34.953C35.195 41.193 35.373 41.123 35.373 41.46C35.373 41.837 35.292 41.817 34.973 41.817H34.398C34.011 41.817 34.011 41.804 34.011 42.341L34.007 44.555Z" fill="#282C36"/>
<path d="M40.2592 44.421C40.2636 43.7538 40.1414 43.0917 39.8992 42.47C39.6842 41.99 39.2742 41.47 38.7592 41.47C37.7402 41.47 37.4372 42.954 37.4372 43.852C37.4372 44.839 37.8172 46.934 38.9912 46.934C40.0232 46.934 40.2592 45.303 40.2592 44.426V44.421ZM35.5482 44.213C35.5793 43.5889 35.7837 42.9858 36.1384 42.4713C36.4932 41.9569 36.9843 41.5516 37.5567 41.3007C38.129 41.0499 38.76 40.9636 39.3786 41.0514C39.9973 41.1393 40.5793 41.3978 41.0592 41.798C41.3952 42.0823 41.6661 42.4356 41.8535 42.8338C42.0408 43.232 42.1403 43.6659 42.1452 44.106C42.1439 44.5443 42.0552 44.9779 41.8844 45.3816C41.7136 45.7853 41.4641 46.1509 41.1505 46.457C40.8369 46.7632 40.4654 47.0039 40.0577 47.1649C39.6501 47.3259 39.2144 47.4042 38.7762 47.395C38.3519 47.4111 37.9288 47.3401 37.5329 47.1865C37.137 47.0329 36.7768 46.7999 36.4744 46.5018C36.172 46.2037 35.9338 45.8468 35.7745 45.4532C35.6152 45.0596 35.5382 44.6375 35.5482 44.213Z" fill="#282C36"/>
<path d="M45.2892 41.926C45.4772 41.926 46.0622 41.015 47.2192 41.015C47.7641 41.0029 48.2932 41.1984 48.6992 41.562C48.9 41.7864 49.0475 42.0532 49.1308 42.3425C49.2141 42.6318 49.231 42.9362 49.1802 43.233V45.468C49.1334 45.8282 49.1749 46.1944 49.3012 46.535C49.4192 46.708 49.6712 46.722 49.8522 46.762C49.9264 46.7672 49.996 46.7997 50.0475 46.8533C50.0991 46.9069 50.1289 46.9777 50.1312 47.052C50.1312 47.282 49.9232 47.292 49.7682 47.292C49.3412 47.292 48.9442 47.265 48.5242 47.265C47.9792 47.265 47.4412 47.292 46.9032 47.292C46.7682 47.292 46.6312 47.252 46.6312 47.052C46.6288 46.9839 46.6509 46.9172 46.6935 46.864C46.736 46.8108 46.7962 46.7746 46.8632 46.762C46.9627 46.7491 47.0585 46.7158 47.1445 46.6642C47.2305 46.6125 47.305 46.5437 47.3632 46.462C47.4475 46.1358 47.4749 45.7975 47.4442 45.462V43.497C47.4592 43.1003 47.3911 42.7048 47.2442 42.336C47.1668 42.191 47.0515 42.0698 46.9106 41.9853C46.7697 41.9007 46.6085 41.856 46.4442 41.856C46.1116 41.8727 45.7962 42.009 45.5562 42.24C45.2432 42.547 45.2872 42.83 45.2872 43.287V45.465C45.2548 45.8005 45.2822 46.1391 45.3682 46.465C45.4261 46.5457 45.4997 46.6139 45.5846 46.6654C45.6694 46.717 45.7639 46.7509 45.8622 46.765C45.9294 46.7776 45.99 46.8136 46.033 46.8668C46.0761 46.9199 46.0988 46.9866 46.0972 47.055C46.0972 47.255 45.9562 47.295 45.8282 47.295C45.2872 47.295 44.7492 47.268 44.2072 47.268C43.7832 47.268 43.3832 47.295 42.9592 47.295C42.8082 47.295 42.5962 47.285 42.5962 47.055C42.6001 46.9807 42.6308 46.9103 42.6827 46.857C42.7345 46.8036 42.804 46.771 42.8782 46.765C43.0562 46.725 43.3152 46.712 43.4332 46.538C43.5535 46.196 43.5939 45.831 43.5512 45.471V43.497C43.5512 42.937 43.5852 42.63 43.0332 42.546C42.8652 42.536 42.6802 42.546 42.6802 42.319C42.6802 42.092 43.0572 42.039 43.1802 42.002C43.7603 41.8454 44.2847 41.5287 44.6932 41.088C44.7382 41.0153 44.801 40.9553 44.8758 40.9138C44.9505 40.8723 45.0347 40.8507 45.1202 40.851C45.3052 40.851 45.2812 41.198 45.2812 41.338L45.2892 41.926Z" fill="#282C36"/>
<path d="M57.9939 41.483C58.2136 41.2259 58.3244 40.8934 58.3029 40.556C58.3029 39.956 57.9529 39.198 57.3649 39.198C57.2689 39.2004 57.1745 39.223 57.0878 39.2643C57.001 39.3055 56.924 39.3646 56.8615 39.4376C56.7991 39.5105 56.7527 39.5958 56.7254 39.6879C56.6981 39.78 56.6904 39.8768 56.7029 39.972C56.7988 40.5576 57.064 41.1024 57.4659 41.539C57.5059 41.579 57.5739 41.699 57.6309 41.699C57.7719 41.6694 57.8993 41.5946 57.9939 41.486V41.483ZM56.1879 43.17C56.1539 43.11 56.1309 43.07 56.0699 43.07C55.9699 43.07 55.7369 43.31 55.6699 43.39C55.4393 43.6683 55.3152 44.0196 55.3199 44.381C55.2919 44.8395 55.4432 45.2909 55.7417 45.64C56.0402 45.9891 56.4627 46.2085 56.9199 46.252C57.2562 46.2467 57.5807 46.128 57.8409 45.915C57.8979 45.862 58.0729 45.728 58.0729 45.621C58.0729 45.551 57.9489 45.421 57.9219 45.381L56.1879 43.17ZM60.7479 45.932C61.0739 46.372 61.2659 46.656 61.7669 46.749C61.9349 46.776 62.1469 46.799 62.1469 47.039C62.1469 47.306 61.8879 47.323 61.7099 47.323C61.2999 47.323 60.8659 47.24 60.4459 47.24C60.1899 47.24 59.9279 47.25 59.6519 47.267C59.3389 47.284 59.2819 47.177 59.0939 46.91L58.6809 46.339C58.6539 46.302 58.4929 46.062 58.4359 46.062C58.3789 46.062 58.3419 46.125 58.3049 46.152C58.0275 46.5481 57.6607 46.8732 57.2341 47.1009C56.8076 47.3287 56.3334 47.4528 55.8499 47.463C55.5408 47.4769 55.2322 47.4269 54.9432 47.3161C54.6543 47.2053 54.3913 47.0362 54.1707 46.8192C53.9501 46.6023 53.7766 46.3421 53.661 46.0551C53.5454 45.7681 53.4902 45.4603 53.4989 45.151C53.4989 43.76 54.5409 43.203 55.5299 42.773C55.6039 42.746 55.7689 42.68 55.7689 42.586C55.7689 42.416 54.9689 41.595 54.9689 40.621C54.9686 40.3363 55.038 40.0559 55.171 39.8042C55.304 39.5525 55.4966 39.3371 55.7319 39.177C56.2378 38.8572 56.829 38.6988 57.4269 38.723C58.3519 38.723 59.8449 38.953 59.8449 40.354C59.8516 40.5992 59.7921 40.8416 59.6726 41.0558C59.5531 41.2699 59.3781 41.4479 59.1659 41.571C58.837 41.7852 58.4742 41.9421 58.0929 42.035C58.0459 42.048 57.9549 42.092 57.9549 42.158C57.9987 42.256 58.0567 42.3469 58.1269 42.428L59.2809 43.925C59.3109 43.968 59.3749 44.045 59.4149 44.045C59.6866 43.7692 59.8754 43.4228 59.9599 43.045C59.9599 42.802 59.6599 42.778 59.5129 42.751C59.3659 42.724 59.1129 42.734 59.1129 42.484C59.1129 42.204 59.4059 42.227 59.5839 42.227H61.6809C61.8259 42.227 62.0209 42.254 62.0209 42.471C62.0209 42.708 61.8089 42.734 61.6509 42.751C61.345 42.7662 61.0574 42.9017 60.8509 43.128C60.4386 43.5558 60.0858 44.0371 59.8019 44.559C59.8019 44.659 59.9599 44.836 60.0019 44.903L60.7479 45.932Z" fill="#282C36"/>
<path d="M70.9871 42.546C71.3871 42.546 71.3741 42.563 71.3741 42.066V40.772C71.3741 39.958 71.4451 39.615 70.6951 39.464C70.5501 39.434 70.3181 39.421 70.3181 39.194C70.3181 38.984 70.4291 38.944 70.5971 38.944C71.2121 38.944 71.7971 38.997 72.4061 38.997C72.9711 38.997 73.5361 38.944 74.0911 38.944C74.2521 38.944 74.3841 38.984 74.3841 39.194C74.3841 39.404 74.1921 39.434 74.0511 39.464C73.2511 39.614 73.3151 39.878 73.3151 40.772V45.515C73.3151 46.306 73.2711 46.629 74.0081 46.759C74.1631 46.782 74.3851 46.826 74.3851 47.066C74.3851 47.266 74.2541 47.32 74.1031 47.32C73.4881 47.32 72.9031 47.263 72.2901 47.263C71.7251 47.263 71.1631 47.32 70.5991 47.32C70.4311 47.32 70.3201 47.263 70.3201 47.066C70.3201 46.853 70.4951 46.782 70.6361 46.759C71.4131 46.612 71.3761 46.382 71.3761 45.515V43.474C71.3591 43.11 71.3391 43.154 71.0231 43.154H68.9251C68.4341 43.154 68.4681 43.097 68.4681 43.644V45.515C68.4681 46.306 68.4241 46.629 69.1681 46.759C69.3191 46.782 69.5411 46.826 69.5411 47.066C69.5411 47.266 69.4101 47.32 69.2591 47.32C68.6501 47.32 68.0591 47.263 67.4501 47.263C66.8881 47.263 66.3201 47.32 65.7591 47.32C65.5941 47.32 65.4771 47.263 65.4771 47.066C65.4771 46.853 65.6521 46.782 65.7931 46.759C66.5701 46.612 66.5361 46.382 66.5361 45.515V40.772C66.5361 39.958 66.6031 39.615 65.8531 39.464C65.7081 39.434 65.4761 39.421 65.4761 39.194C65.4761 38.984 65.5941 38.944 65.7581 38.944C66.3671 38.944 66.9581 38.997 67.5711 38.997C68.1361 38.997 68.6941 38.944 69.2461 38.944C69.4111 38.944 69.5461 38.984 69.5461 39.194C69.5461 39.404 69.3611 39.434 69.2201 39.464C68.4201 39.614 68.4771 39.878 68.4771 40.772V42.066C68.4771 42.546 68.4871 42.546 68.9011 42.546H70.9871Z" fill="#282C36"/>
<path d="M79.4009 44.421C79.4076 43.7533 79.2843 43.0906 79.0379 42.47C78.8299 41.99 78.4159 41.47 77.8979 41.47C76.8859 41.47 76.5759 42.954 76.5759 43.852C76.5759 44.839 76.9589 46.934 78.1299 46.934C79.1659 46.934 79.4009 45.303 79.4009 44.426V44.421ZM74.6859 44.213C74.7171 43.5885 74.9217 42.9851 75.2769 42.4704C75.632 41.9558 76.1235 41.5503 76.6963 41.2995C77.2691 41.0486 77.9004 40.9624 78.5195 41.0505C79.1385 41.1385 79.7208 41.3974 80.2009 41.798C80.5359 42.0827 80.8056 42.4362 80.9918 42.8345C81.178 43.2327 81.2763 43.6664 81.2799 44.106C81.2794 44.5441 81.1916 44.9776 81.0215 45.3813C80.8514 45.785 80.6025 46.1507 80.2893 46.457C79.9762 46.7633 79.605 47.004 79.1976 47.1651C78.7903 47.3262 78.3548 47.4043 77.9169 47.395C77.4923 47.4112 77.069 47.3404 76.6728 47.1869C76.2767 47.0333 75.9161 46.8004 75.6134 46.5023C75.3106 46.2042 75.0721 45.8474 74.9124 45.4537C74.7527 45.06 74.6753 44.6378 74.6849 44.213" fill="#282C36"/>
<path d="M86.0532 43.083C86.1906 42.7881 86.2782 42.4725 86.3122 42.149C86.3122 41.802 86.0302 41.722 85.7812 41.679C85.6332 41.656 85.3942 41.679 85.3942 41.425C85.3942 41.3872 85.4022 41.3498 85.4178 41.3153C85.4333 41.2809 85.4561 41.2501 85.4845 41.2251C85.5129 41.2001 85.5463 41.1815 85.5824 41.1704C85.6186 41.1594 85.6567 41.1562 85.6942 41.161C86.0472 41.161 86.3832 41.188 86.7402 41.188C87.0762 41.188 87.4332 41.161 87.7722 41.161C87.9272 41.161 88.1022 41.188 88.1022 41.398C88.0999 41.4697 88.0712 41.538 88.0215 41.5897C87.9718 41.6414 87.9047 41.6728 87.8332 41.678C87.3662 41.778 87.2682 41.721 87.0332 42.278L85.1062 46.848C84.9552 47.205 84.9212 47.382 84.5412 47.382C84.2012 47.382 84.1952 47.192 84.0572 46.875L82.3062 42.643C82.2078 42.3962 82.0943 42.1558 81.9662 41.923C81.8649 41.7934 81.7185 41.7066 81.5562 41.68C81.3912 41.64 81.1792 41.667 81.1792 41.426C81.1792 41.185 81.3982 41.162 81.5722 41.162C82.0232 41.162 82.4932 41.189 82.9642 41.189C83.4822 41.189 84.0002 41.162 84.5012 41.162C84.6562 41.162 84.8782 41.162 84.8782 41.399C84.8782 41.656 84.6192 41.666 84.4542 41.679C84.2892 41.692 84.0772 41.766 84.0772 41.989C84.1013 42.1561 84.1488 42.3191 84.2182 42.473L85.0322 44.604C85.0592 44.671 85.1602 44.998 85.2512 44.998C85.3222 44.998 85.4192 44.698 85.4292 44.648L86.0532 43.083Z" fill="#282C36"/>
<path d="M91.5912 42.977C91.9072 42.9 92.0212 42.643 92.0212 42.31C92.0311 42.2037 92.0189 42.0966 91.9854 41.9952C91.9518 41.8939 91.8976 41.8007 91.8262 41.7214C91.7548 41.6421 91.6677 41.5784 91.5704 41.5345C91.4732 41.4905 91.3679 41.4672 91.2612 41.466C91.0751 41.4711 90.8925 41.5172 90.7262 41.6008C90.56 41.6844 90.4142 41.8037 90.2992 41.95C90.1121 42.2136 89.9983 42.5221 89.9692 42.844C89.9692 43.084 90.1811 43.054 90.3521 43.054C90.766 43.0674 91.1802 43.0416 91.5892 42.977H91.5912ZM90.2572 43.551C89.9682 43.551 89.8501 43.511 89.8501 43.888C89.8501 45.182 90.6132 46.463 91.8812 46.463C92.7752 46.463 93.1551 45.763 93.4311 45.763C93.4563 45.764 93.481 45.77 93.5038 45.7807C93.5266 45.7913 93.547 45.8064 93.5639 45.825C93.5809 45.8436 93.5939 45.8654 93.6024 45.8891C93.6108 45.9127 93.6145 45.9379 93.6131 45.963C93.6131 46.23 93.1761 46.593 93.0011 46.713C92.4427 47.1425 91.7587 47.3768 91.0542 47.38C90.6354 47.3717 90.2226 47.28 89.8397 47.1103C89.4568 46.9406 89.1116 46.6963 88.8242 46.3917C88.5368 46.087 88.313 45.7282 88.1658 45.3361C88.0187 44.944 87.9511 44.5265 87.9672 44.108C87.9697 43.6931 88.0549 43.283 88.2179 42.9014C88.3808 42.5199 88.6182 42.1747 88.9162 41.8861C89.2142 41.5974 89.5667 41.3711 89.9532 41.2203C90.3397 41.0695 90.7524 40.9974 91.1671 41.008C91.8145 41.0015 92.4434 41.2235 92.9432 41.635C93.1592 41.8015 93.3366 42.0129 93.4632 42.2546C93.5897 42.4963 93.6624 42.7625 93.6762 43.035C93.6762 43.529 93.4171 43.542 93.0141 43.542L90.2572 43.551Z" fill="#282C36"/>
<path d="M20.963 58.145C20.939 58.589 20.953 58.762 20.593 58.999C19.9185 59.4267 19.1313 59.6426 18.333 59.619C17.2183 59.6547 16.1255 59.3047 15.239 58.628C14.7732 58.2098 14.4002 57.6987 14.1439 57.1276C13.8876 56.5564 13.7538 55.938 13.751 55.312C13.7488 54.6824 13.8834 54.0599 14.1453 53.4874C14.4072 52.9149 14.7902 52.406 15.268 51.996C16.212 51.2601 17.3771 50.8651 18.574 50.875C19.1708 50.8822 19.7634 50.9765 20.333 51.155C20.652 51.262 20.652 51.312 20.716 51.685L20.807 52.372C20.8316 52.4987 20.8463 52.6271 20.851 52.756C20.854 52.7859 20.8504 52.816 20.8405 52.8443C20.8307 52.8727 20.8148 52.8985 20.794 52.9201C20.7732 52.9417 20.7479 52.9585 20.7199 52.9694C20.6919 52.9802 20.6619 52.9849 20.632 52.983C20.091 52.983 20.054 51.392 18.47 51.392C18.0721 51.4139 17.686 51.5352 17.3471 51.7448C17.0082 51.9544 16.7272 52.2457 16.53 52.592C16.082 53.3809 15.8576 54.2771 15.881 55.184C15.863 56.0744 16.065 56.9554 16.469 57.749C16.6512 58.1313 16.9331 58.4574 17.2851 58.6929C17.6371 58.9283 18.0461 59.0645 18.469 59.087C18.9272 59.0782 19.3653 58.8972 19.696 58.58C20.0313 58.2214 20.2959 57.8027 20.476 57.346C20.533 57.199 20.617 57.069 20.776 57.069C21.032 57.069 21.015 57.369 21.005 57.576L20.963 58.145Z" fill="#282C36"/>
<path d="M22.2112 51.516C22.2113 51.3789 22.2387 51.2433 22.2918 51.1169C22.3449 50.9906 22.4227 50.8761 22.5205 50.7801C22.6184 50.6841 22.7343 50.6086 22.8617 50.5579C22.989 50.5073 23.1252 50.4825 23.2622 50.485C23.3976 50.4798 23.5327 50.5023 23.659 50.5512C23.7854 50.6001 23.9004 50.6743 23.9971 50.7692C24.0937 50.8642 24.17 50.9779 24.2211 51.1034C24.2721 51.2289 24.297 51.3635 24.2942 51.499C24.3022 51.6421 24.2806 51.7853 24.2308 51.9196C24.1809 52.054 24.1039 52.1766 24.0045 52.2799C23.9051 52.3831 23.7855 52.4647 23.6531 52.5196C23.5208 52.5745 23.3785 52.6016 23.2352 52.599C23.0956 52.6004 22.9571 52.573 22.8286 52.5183C22.7 52.4637 22.5841 52.3832 22.4882 52.2817C22.3922 52.1802 22.3183 52.06 22.271 51.9285C22.2236 51.7971 22.204 51.6574 22.2132 51.518L22.2112 51.516ZM24.1432 57.612C24.1163 57.9683 24.1321 58.3265 24.1902 58.679C24.2442 58.879 24.6102 58.866 24.8222 58.902C24.9532 58.932 25.1042 59.012 25.1042 59.182C25.1042 59.415 24.8992 59.442 24.7442 59.442C24.2442 59.442 23.7522 59.415 23.2612 59.415C22.7702 59.415 22.2932 59.442 21.8052 59.442C21.6472 59.442 21.4492 59.415 21.4492 59.182C21.4492 59.012 21.5902 58.932 21.7312 58.902C21.8922 58.875 22.2622 58.865 22.3192 58.679C22.3872 58.3276 22.4144 57.9696 22.4002 57.612V55.642C22.4002 55.085 22.4372 54.778 21.8822 54.695C21.7172 54.682 21.5292 54.695 21.5292 54.468C21.5292 54.241 21.9062 54.188 22.0292 54.148C22.6095 53.9906 23.1346 53.6752 23.5462 53.237C23.5917 53.1638 23.655 53.1034 23.7302 53.0614C23.8054 53.0194 23.8901 52.9973 23.9762 52.997C24.1582 52.997 24.1372 53.347 24.1372 53.481L24.1432 57.612Z" fill="#282C36"/>
<path d="M27.5099 56.7C27.5099 57.194 27.4629 58.5 28.0879 58.5C28.4749 58.5 28.7339 58.116 28.9089 58.116C28.9303 58.1181 28.9511 58.1245 28.97 58.1347C28.9889 58.1449 29.0057 58.1588 29.0191 58.1756C29.0326 58.1923 29.0427 58.2116 29.0486 58.2323C29.0546 58.253 29.0564 58.2746 29.0539 58.296C29.0539 58.476 28.8149 58.743 28.7239 58.85C28.527 59.0596 28.2903 59.2277 28.0275 59.3444C27.7648 59.4612 27.4814 59.5243 27.1939 59.53C26.9822 59.5284 26.7739 59.4765 26.5862 59.3784C26.3986 59.2803 26.237 59.1389 26.1149 58.966C25.8644 58.5141 25.7456 58.001 25.7719 57.485V54.695C25.7707 54.5079 25.7594 54.3209 25.7379 54.135C25.7139 54.002 25.5699 53.965 25.4519 53.965C25.3009 53.965 24.9209 54.028 24.9209 53.812C24.9209 53.612 25.1699 53.512 25.3009 53.455C25.9713 53.1602 26.5215 52.646 26.8609 51.997C26.9479 51.82 27.0659 51.553 27.2609 51.553C27.5059 51.553 27.4609 51.86 27.4609 52.053V52.97C27.4609 53.354 27.5319 53.334 27.8379 53.334H28.4469C28.6959 53.334 28.8709 53.267 28.8709 53.601C28.8709 53.975 28.7899 53.968 28.4709 53.968H27.9019C27.5119 53.968 27.5119 53.955 27.5119 54.485L27.5099 56.7Z" fill="#282C36"/>
<path d="M33.8828 54.778C33.9585 54.6069 34.0051 54.4244 34.0208 54.238C34.0208 53.938 33.7208 53.838 33.4928 53.824C33.3178 53.814 33.0488 53.801 33.0488 53.517C33.0488 53.304 33.2838 53.304 33.4258 53.304C33.7658 53.304 34.0948 53.331 34.4348 53.331C34.7748 53.331 35.1038 53.304 35.4468 53.304C35.6018 53.304 35.7528 53.304 35.7528 53.517C35.7528 53.747 35.5878 53.801 35.4228 53.824C35.1228 53.884 35.0358 53.854 34.8378 54.134C34.6135 54.501 34.4275 54.89 34.2828 55.295L32.5108 59.571L31.8718 61.309C31.6368 62.096 31.6898 62.293 30.9138 62.293C30.3958 62.293 29.8748 62.26 29.8748 61.549C29.8706 61.3205 29.9239 61.0945 30.0298 60.892C30.2048 60.628 30.4768 60.662 30.7228 60.679C31.0758 60.692 31.3588 60.772 31.6038 60.442C31.7412 60.2514 31.827 60.0285 31.8528 59.795C31.8172 59.5403 31.7423 59.2927 31.6308 59.061L29.8888 55.061C29.7397 54.7212 29.5666 54.3923 29.3708 54.077C29.2158 53.867 29.1118 53.867 28.8898 53.82C28.7448 53.797 28.5498 53.757 28.5498 53.526C28.5498 53.295 28.7718 53.299 28.9498 53.299C29.4678 53.299 30.0088 53.326 30.5198 53.326C30.9708 53.326 31.4408 53.299 31.8988 53.299C32.0498 53.299 32.3258 53.299 32.3258 53.526C32.3258 53.726 32.1578 53.783 32.0168 53.82C31.8758 53.857 31.5598 53.88 31.5598 54.14C31.593 54.3449 31.6563 54.5437 31.7478 54.73L32.6158 56.788C32.6558 56.855 32.7708 57.198 32.8608 57.198C32.9788 57.198 33.0858 56.868 33.1128 56.774L33.8828 54.778Z" fill="#282C36"/>
<path d="M46.0562 58.145C46.0362 58.589 46.0492 58.762 45.6862 58.999C45.012 59.4273 44.2247 59.6433 43.4262 59.619C42.3129 59.654 41.2216 59.304 40.3362 58.628C39.8698 58.211 39.4962 57.7008 39.2395 57.1302C38.9829 56.5597 38.8489 55.9416 38.8462 55.316C38.8434 54.6867 38.9772 54.0643 39.2384 53.4918C39.4996 52.9192 39.8821 52.4103 40.3592 52C41.3027 51.2632 42.4682 50.868 43.6652 50.879C44.264 50.887 44.8584 50.9813 45.4302 51.159C45.7462 51.266 45.7462 51.316 45.8002 51.689L45.9002 52.376C45.9265 52.5024 45.9412 52.6309 45.9442 52.76C45.9466 52.79 45.9425 52.8201 45.9322 52.8484C45.9219 52.8766 45.9057 52.9024 45.8847 52.9239C45.8637 52.9453 45.8383 52.9621 45.8103 52.973C45.7823 52.9839 45.7523 52.9887 45.7222 52.987C45.1842 52.987 45.1442 51.396 43.5632 51.396C43.1646 51.4173 42.7778 51.5383 42.4381 51.748C42.0985 51.9576 41.8169 52.2492 41.6192 52.596C41.1765 53.3867 40.9547 54.282 40.9772 55.188C40.9598 56.0779 41.1607 56.9586 41.5622 57.753C41.7441 58.1356 42.0259 58.4619 42.378 58.6974C42.7301 58.9329 43.1392 59.0689 43.5622 59.091C44.0214 59.0812 44.4604 58.9004 44.7932 58.584C45.1242 58.2226 45.3874 57.8046 45.5702 57.35C45.6242 57.203 45.7112 57.073 45.8632 57.073C46.1222 57.073 46.1082 57.373 46.0982 57.58L46.0562 58.145Z" fill="#282C36"/>
<path d="M51.2222 56.566C51.2249 55.8983 51.1004 55.2361 50.8552 54.615C50.6432 54.135 50.2332 53.615 49.7182 53.615C48.6992 53.615 48.4002 55.099 48.4002 55.997C48.4002 56.981 48.7732 59.076 49.9542 59.076C50.9862 59.076 51.2222 57.448 51.2222 56.568V56.566ZM46.5072 56.358C46.5261 55.494 46.886 54.6726 47.5084 54.0731C48.1308 53.4736 48.9651 53.1446 49.8292 53.158C50.6291 53.144 51.4073 53.4188 52.0212 53.932C52.356 54.2177 52.6257 54.572 52.812 54.9708C52.9983 55.3696 53.0969 55.8038 53.1012 56.244C53.1017 56.682 53.0146 57.1157 52.8451 57.5195C52.6756 57.9234 52.4271 58.2893 52.1141 58.5957C51.8012 58.9021 51.4301 59.1429 51.0228 59.3039C50.6154 59.4648 50.18 59.5427 49.7422 59.533C49.3177 59.5506 48.8942 59.481 48.4977 59.3285C48.1012 59.1759 47.7402 58.9437 47.437 58.6461C47.1338 58.3486 46.8949 57.992 46.735 57.5984C46.575 57.2049 46.4975 56.7827 46.5072 56.358Z" fill="#282C36"/>
<path d="M59.5908 58.021C59.5778 58.365 59.7908 58.448 60.1188 58.491C60.2328 58.504 60.3408 58.544 60.3408 58.704C60.3408 58.927 59.9408 58.998 59.7998 59.021L58.5788 59.428C58.4218 59.4998 58.257 59.5534 58.0878 59.588C57.8728 59.588 57.9468 59.234 57.9468 59.088C57.9468 59.008 57.9938 58.608 57.8388 58.608C57.7648 58.608 57.6608 58.701 57.6168 58.741C57.1533 59.2012 56.5403 59.4804 55.8888 59.528C55.6324 59.5291 55.3792 59.4717 55.1483 59.3601C54.9175 59.2485 54.7152 59.0857 54.5568 58.884C54.2688 58.3828 54.1388 57.8063 54.1838 57.23V55.099C54.2125 54.7618 54.1758 54.4223 54.0758 54.099C53.9448 53.872 53.7128 53.856 53.4938 53.799C53.3558 53.776 53.2148 53.709 53.2148 53.519C53.2148 53.292 53.4148 53.306 53.5678 53.306C53.9348 53.306 54.2878 53.333 54.6538 53.333C55.0198 53.333 55.3668 53.306 55.7368 53.306C55.8878 53.306 55.9188 53.333 55.9188 53.519V57.119C55.9066 57.4758 55.9686 57.8313 56.1008 58.163C56.1698 58.2865 56.2703 58.3895 56.392 58.4615C56.5137 58.5336 56.6524 58.572 56.7938 58.573C57.1343 58.5442 57.4497 58.3825 57.6718 58.123C57.837 57.8861 57.9024 57.5937 57.8538 57.309V55.112C57.8842 54.7707 57.8503 54.4268 57.7538 54.098C57.6839 54.0086 57.5953 53.9355 57.4943 53.8837C57.3933 53.8319 57.2823 53.8027 57.1688 53.798C57.0378 53.775 56.8968 53.708 56.8968 53.531C56.8968 53.291 57.0968 53.304 57.2498 53.304C57.6168 53.304 57.9798 53.331 58.3398 53.331C58.6998 53.331 59.0728 53.304 59.4398 53.304C59.6478 53.304 59.5948 53.574 59.5948 53.761L59.5908 58.021Z" fill="#282C36"/>
<path d="M63.2459 54.068C63.4309 54.068 64.0159 53.161 65.1729 53.161C65.7187 53.1491 66.2486 53.3446 66.6559 53.708C66.856 53.9327 67.0028 54.1997 67.0854 54.489C67.168 54.7783 67.1842 55.0825 67.1329 55.379V57.61C67.0897 57.9702 67.1311 58.3356 67.2539 58.677C67.3679 58.85 67.6309 58.864 67.8089 58.9C67.883 58.9085 67.9514 58.9436 68.0014 58.9988C68.0515 59.054 68.0797 59.1255 68.0809 59.2C68.0809 59.43 67.8759 59.443 67.7249 59.443C67.2979 59.443 66.8979 59.416 66.4769 59.416C65.9389 59.416 65.3979 59.443 64.8559 59.443C64.7279 59.443 64.5839 59.403 64.5839 59.2C64.5802 59.1305 64.6015 59.0619 64.6441 59.0068C64.6867 58.9517 64.7477 58.9138 64.8159 58.9C64.9154 58.8892 65.0113 58.8574 65.0975 58.8067C65.1837 58.756 65.2582 58.6876 65.3159 58.606C65.4033 58.2803 65.4317 57.9417 65.3999 57.606V55.642C65.4191 55.245 65.3508 54.8487 65.1999 54.481C65.1224 54.3362 65.0071 54.2151 64.8662 54.1305C64.7254 54.046 64.5642 54.0013 64.3999 54.001C64.0689 54.0172 63.7559 54.1562 63.5219 54.391C63.2029 54.691 63.2529 54.975 63.2529 55.432V57.61C63.2186 57.9455 63.246 58.2844 63.3339 58.61C63.392 58.6913 63.4666 58.7595 63.5527 58.8101C63.6388 58.8608 63.7347 58.8928 63.8339 58.904C63.9022 58.9178 63.9632 58.9557 64.0058 59.0108C64.0484 59.0659 64.0697 59.1345 64.0659 59.204C64.0659 59.404 63.9209 59.447 63.7899 59.447C63.2549 59.447 62.7139 59.42 62.1759 59.42C61.7489 59.42 61.3489 59.447 60.9279 59.447C60.7769 59.447 60.5649 59.434 60.5649 59.204C60.567 59.1286 60.5965 59.0566 60.6478 59.0013C60.6992 58.9461 60.7689 58.9115 60.8439 58.904C61.0219 58.867 61.2809 58.854 61.3949 58.681C61.5184 58.3397 61.5589 57.974 61.5129 57.614V55.642C61.5129 55.085 61.5529 54.778 60.9949 54.695C60.8339 54.678 60.6419 54.695 60.6419 54.465C60.6419 54.235 61.0219 54.188 61.1499 54.148C61.7298 53.9898 62.2548 53.6745 62.6669 53.237C62.7104 53.1643 62.7719 53.104 62.8455 53.0619C62.9191 53.0199 63.0022 52.9975 63.0869 52.997C63.2789 52.997 63.2549 53.351 63.2549 53.481L63.2459 54.068Z" fill="#282C36"/>
<path d="M71.4581 53.65C71.2703 53.678 71.0905 53.7449 70.9302 53.8465C70.7698 53.9482 70.6325 54.0822 70.5271 54.24C70.1827 54.7233 70.0035 55.3047 70.0161 55.898C70.0161 57.259 70.8501 58.623 72.1681 58.623C73.0251 58.623 73.2811 58.129 73.5101 58.129C73.5477 58.135 73.5821 58.154 73.6073 58.1827C73.6325 58.2113 73.6469 58.2479 73.6481 58.286C73.6481 58.593 73.3081 58.836 73.1171 58.986C72.5871 59.3484 71.9591 59.5403 71.3171 59.536C70.8955 59.5488 70.4758 59.4739 70.0847 59.3162C69.6935 59.1585 69.3393 58.9214 69.0445 58.6198C68.7497 58.3182 68.5206 57.9587 68.3718 57.564C68.223 57.1694 68.1577 56.7482 68.1801 56.327C68.239 55.4362 68.6466 54.6045 69.3144 54.0121C69.9822 53.4197 70.8566 53.1143 71.7481 53.162C72.25 53.1512 72.7456 53.2744 73.1841 53.519C73.2955 53.5622 73.3897 53.6407 73.4522 53.7426C73.5147 53.8445 73.5421 53.9641 73.5301 54.083C73.5301 54.403 73.4191 55.297 73.0361 55.297C72.6531 55.297 72.4781 54.84 72.3261 54.553C72.1141 54.146 71.9431 53.653 71.4551 53.653" fill="#282C36"/>
<path d="M74.8139 51.516C74.8135 51.3798 74.8401 51.2449 74.8923 51.1191C74.9445 50.9933 75.0211 50.8792 75.1178 50.7832C75.2144 50.6873 75.3292 50.6115 75.4554 50.5604C75.5816 50.5092 75.7167 50.4835 75.8529 50.485C75.9887 50.4786 76.1245 50.5003 76.2516 50.5488C76.3787 50.5972 76.4945 50.6713 76.5917 50.7664C76.6889 50.8616 76.7654 50.9757 76.8166 51.1018C76.8677 51.2278 76.8923 51.363 76.8889 51.499C76.8972 51.6422 76.8758 51.7855 76.826 51.92C76.7763 52.0545 76.6993 52.1772 76.5998 52.2805C76.5004 52.3838 76.3806 52.4654 76.2481 52.5202C76.1156 52.575 75.9732 52.6019 75.8299 52.599C75.6901 52.6017 75.5513 52.5751 75.4225 52.5208C75.2937 52.4666 75.1776 52.3859 75.0819 52.284C74.9862 52.1822 74.9128 52.0614 74.8667 51.9294C74.8205 51.7975 74.8025 51.6573 74.8139 51.518V51.516ZM76.7409 57.612C76.7147 57.9682 76.7294 58.3262 76.7849 58.679C76.8459 58.879 77.2119 58.866 77.4239 58.902C77.5519 58.932 77.7029 59.012 77.7029 59.182C77.7029 59.415 77.4879 59.442 77.3359 59.442C76.8449 59.442 76.3539 59.415 75.8529 59.415C75.3519 59.415 74.8909 59.442 74.3999 59.442C74.2449 59.442 74.0469 59.415 74.0469 59.182C74.0469 59.012 74.1879 58.932 74.3289 58.902C74.4939 58.875 74.8569 58.865 74.9139 58.679C74.9819 58.3276 75.0091 57.9696 74.9949 57.612V55.642C74.9949 55.085 75.0389 54.778 74.4809 54.695C74.3159 54.682 74.1309 54.695 74.1309 54.468C74.1309 54.241 74.5079 54.188 74.6309 54.148C75.2125 53.9898 75.7394 53.6746 76.1539 53.237C76.1959 53.1643 76.2562 53.1038 76.3288 53.0617C76.4015 53.0196 76.4839 52.9973 76.5679 52.997C76.7679 52.997 76.7389 53.347 76.7389 53.481L76.7409 57.612Z" fill="#282C36"/>
<path d="M80.5009 58.316C80.5009 58.359 80.5009 58.816 81.1429 58.906C81.3009 58.933 81.5229 58.969 81.5229 59.213C81.5229 59.413 81.4019 59.44 81.2569 59.44C80.6889 59.44 80.1439 59.417 79.6089 59.417C79.0409 59.417 78.4829 59.44 77.9139 59.44C77.7459 59.44 77.6279 59.417 77.6279 59.213C77.6279 58.969 77.8129 58.933 77.9539 58.906C78.6639 58.813 78.6639 58.359 78.6639 58.316V52.089C78.6639 51.359 78.7039 51.218 78.0419 51.115C77.9549 51.102 77.8129 51.062 77.8129 50.915C77.8129 50.662 78.1529 50.631 78.3129 50.608C78.8488 50.511 79.3707 50.3485 79.8669 50.124C80.0031 50.0504 80.1509 50.0006 80.3039 49.977C80.5559 49.977 80.5039 50.431 80.5039 50.621L80.5009 58.316Z" fill="#282C36"/>
</svg>
